<svg width="42" height="41" viewBox="0 0 42 41" fill="none" xmlns="http://www.w3.org/2000/svg">
<g filter="url(#filter0_d_102_70)">
<path d="M33.7433 0H8.23886C6.31879 0 4.76099 1.53925 4.76099 3.43647V28.6373C4.76099 30.5345 6.31879 32.0737 8.23886 32.0737H33.7433C35.6634 32.0737 37.2212 30.5345 37.2212 28.6373V3.43647C37.2212 1.53925 35.6634 0 33.7433 0ZM30.2002 11.369C30.2147 11.5695 30.2147 11.7771 30.2147 11.9775C30.2147 18.1847 25.4326 25.3368 16.6944 25.3368C13.9991 25.3368 11.4994 24.5636 9.39815 23.232C9.78217 23.2749 10.1517 23.2893 10.543 23.2893C12.7673 23.2893 14.8106 22.5447 16.4409 21.2847C14.3541 21.2417 12.6007 19.8886 11.9993 18.0272C12.7311 18.1346 13.3905 18.1346 14.144 17.9413C11.9703 17.5045 10.3401 15.6145 10.3401 13.3307V13.2734C10.9704 13.6242 11.7095 13.839 12.4848 13.8676C11.833 13.4392 11.2987 12.858 10.9295 12.176C10.5603 11.4939 10.3678 10.7321 10.3691 9.95861C10.3691 9.08517 10.6009 8.28333 11.0139 7.58888C13.3542 10.4383 16.8683 12.2997 20.8099 12.5002C20.1361 9.31427 22.5489 6.72976 25.4471 6.72976C26.8165 6.72976 28.0483 7.29534 28.9177 8.21174C29.9901 8.01128 31.019 7.61751 31.9319 7.08056C31.5769 8.16878 30.8306 9.08517 29.8452 9.66508C30.8016 9.56485 31.729 9.29995 32.584 8.93483C31.9391 9.8727 31.1276 10.7032 30.2002 11.369Z" fill="white"/>
</g>
<defs>
<filter id="filter0_d_102_70" x="0.760986" y="0" width="40.4602" height="40.0737" filterUnits="userSpaceOnUse" color-interpolation-filters="sRGB">
<feFlood flood-opacity="0" result="BackgroundImageFix"/>
<feColorMatrix in="SourceAlpha" type="matrix" values="0 0 0 0 0 0 0 0 0 0 0 0 0 0 0 0 0 0 127 0" result="hardAlpha"/>
<feOffset dy="4"/>
<feGaussianBlur stdDeviation="2"/>
<feComposite in2="hardAlpha" operator="out"/>
<feColorMatrix type="matrix" values="0 0 0 0 0 0 0 0 0 0 0 0 0 0 0 0 0 0 0.25 0"/>
<feBlend mode="normal" in2="BackgroundImageFix" result="effect1_dropShadow_102_70"/>
<feBlend mode="normal" in="SourceGraphic" in2="effect1_dropShadow_102_70" result="shape"/>
</filter>
</defs>
</svg>
